<mxfile host="app.diagrams.net" agent="Mozilla/5.0 (X11; Linux x86_64; rv:138.0) Gecko/20100101 Firefox/138.0" version="27.1.4">
  <diagram id="C5RBs43oDa-KdzZeNtuy" name="Page-1">
    <mxGraphModel grid="1" page="1" gridSize="10" guides="1" tooltips="1" connect="1" arrows="1" fold="1" pageScale="1" pageWidth="827" pageHeight="1169" math="0" shadow="0">
      <root>
        <mxCell id="WIyWlLk6GJQsqaUBKTNV-0" />
        <mxCell id="WIyWlLk6GJQsqaUBKTNV-1" parent="WIyWlLk6GJQsqaUBKTNV-0" />
        <mxCell id="eiDQOK38_1h7FZ8yeTF6-10" value="Buscar pelo formulário" style="shape=umlFrame;whiteSpace=wrap;html=1;pointerEvents=0;width=150;height=30;strokeWidth=2;fontStyle=1" vertex="1" parent="WIyWlLk6GJQsqaUBKTNV-1">
          <mxGeometry x="1130" y="-45" width="750" height="515" as="geometry" />
        </mxCell>
        <mxCell id="eiDQOK38_1h7FZ8yeTF6-142" style="edgeStyle=orthogonalEdgeStyle;rounded=0;orthogonalLoop=1;jettySize=auto;html=1;endArrow=open;endFill=0;exitX=0.403;exitY=0.494;exitDx=0;exitDy=0;exitPerimeter=0;strokeWidth=2;" edge="1" parent="WIyWlLk6GJQsqaUBKTNV-1" source="n-twqc49LTAcAogqDrhY-0">
          <mxGeometry relative="1" as="geometry">
            <Array as="points">
              <mxPoint x="1280" y="264" />
              <mxPoint x="1280" y="290" />
              <mxPoint x="1420" y="290" />
              <mxPoint x="1420" y="70" />
              <mxPoint x="1580" y="70" />
            </Array>
            <mxPoint x="1342.31875" y="874.152" as="sourcePoint" />
            <mxPoint x="1580" y="70" as="targetPoint" />
          </mxGeometry>
        </mxCell>
        <mxCell id="n-twqc49LTAcAogqDrhY-0" value="" style="line;strokeWidth=2;fillColor=none;align=left;verticalAlign=middle;spacingTop=-1;spacingLeft=3;spacingRight=3;rotatable=0;labelPosition=right;points=[];portConstraint=eastwest;strokeColor=inherit;fontStyle=1" vertex="1" parent="WIyWlLk6GJQsqaUBKTNV-1">
          <mxGeometry x="1210" y="245" width="181.25" height="38" as="geometry" />
        </mxCell>
        <mxCell id="n-twqc49LTAcAogqDrhY-1" value="" style="line;strokeWidth=2;fillColor=none;align=left;verticalAlign=middle;spacingTop=-1;spacingLeft=3;spacingRight=3;rotatable=0;labelPosition=right;points=[];portConstraint=eastwest;strokeColor=inherit;fontStyle=1" vertex="1" parent="WIyWlLk6GJQsqaUBKTNV-1">
          <mxGeometry x="1175" y="115" width="216.25" height="38" as="geometry" />
        </mxCell>
        <mxCell id="n-twqc49LTAcAogqDrhY-2" value="" style="endArrow=open;html=1;rounded=0;endFill=0;strokeWidth=2;fontStyle=1;exitX=0.526;exitY=1.019;exitDx=0;exitDy=0;exitPerimeter=0;" edge="1" parent="WIyWlLk6GJQsqaUBKTNV-1" source="n-twqc49LTAcAogqDrhY-6">
          <mxGeometry width="50" height="50" relative="1" as="geometry">
            <mxPoint x="1282.54" y="215" as="sourcePoint" />
            <mxPoint x="1283" y="265" as="targetPoint" />
          </mxGeometry>
        </mxCell>
        <mxCell id="n-twqc49LTAcAogqDrhY-3" value="" style="endArrow=open;html=1;rounded=0;entryX=0.721;entryY=0.501;entryDx=0;entryDy=0;entryPerimeter=0;endFill=0;strokeWidth=2;edgeStyle=orthogonalEdgeStyle;exitX=0.5;exitY=1;exitDx=0;exitDy=0;fontStyle=1" edge="1" parent="WIyWlLk6GJQsqaUBKTNV-1" source="n-twqc49LTAcAogqDrhY-10" target="n-twqc49LTAcAogqDrhY-0">
          <mxGeometry width="50" height="50" relative="1" as="geometry">
            <mxPoint x="1435" y="215" as="sourcePoint" />
            <mxPoint x="1355" y="255" as="targetPoint" />
            <Array as="points">
              <mxPoint x="1370" y="215" />
              <mxPoint x="1370" y="235" />
              <mxPoint x="1340" y="235" />
              <mxPoint x="1340" y="264" />
            </Array>
          </mxGeometry>
        </mxCell>
        <mxCell id="n-twqc49LTAcAogqDrhY-4" value="" style="edgeStyle=orthogonalEdgeStyle;html=1;verticalAlign=bottom;endArrow=open;endSize=8;rounded=0;entryX=0.5;entryY=0;entryDx=0;entryDy=0;exitX=0.111;exitY=0.523;exitDx=0;exitDy=0;exitPerimeter=0;strokeWidth=2;fontStyle=1" edge="1" parent="WIyWlLk6GJQsqaUBKTNV-1" source="n-twqc49LTAcAogqDrhY-1" target="n-twqc49LTAcAogqDrhY-11">
          <mxGeometry relative="1" as="geometry">
            <mxPoint x="1138.6799999999998" y="174.96000000000004" as="targetPoint" />
            <Array as="points">
              <mxPoint x="1198" y="135" />
              <mxPoint x="1198" y="150" />
              <mxPoint x="1198" y="150" />
            </Array>
            <mxPoint x="1155" y="145" as="sourcePoint" />
          </mxGeometry>
        </mxCell>
        <mxCell id="n-twqc49LTAcAogqDrhY-5" value="" style="edgeStyle=orthogonalEdgeStyle;html=1;verticalAlign=bottom;endArrow=open;endSize=8;rounded=0;exitX=0.498;exitY=0.504;exitDx=0;exitDy=0;exitPerimeter=0;strokeWidth=2;fontStyle=1" edge="1" parent="WIyWlLk6GJQsqaUBKTNV-1" source="n-twqc49LTAcAogqDrhY-1" target="n-twqc49LTAcAogqDrhY-6">
          <mxGeometry relative="1" as="geometry">
            <mxPoint x="1283.19" y="175.56000000000017" as="targetPoint" />
            <Array as="points">
              <mxPoint x="1283" y="155" />
              <mxPoint x="1283" y="155" />
            </Array>
            <mxPoint x="1351" y="145" as="sourcePoint" />
          </mxGeometry>
        </mxCell>
        <mxCell id="n-twqc49LTAcAogqDrhY-6" value="Definir destino" style="rounded=1;whiteSpace=wrap;html=1;arcSize=40;fontColor=#000000;fillColor=#FFFFFF;strokeColor=#000000;strokeWidth=2;fontStyle=1" vertex="1" parent="WIyWlLk6GJQsqaUBKTNV-1">
          <mxGeometry x="1241.56" y="175" width="76.87" height="40" as="geometry" />
        </mxCell>
        <mxCell id="n-twqc49LTAcAogqDrhY-7" value="" style="edgeStyle=orthogonalEdgeStyle;html=1;verticalAlign=bottom;endArrow=open;endSize=8;rounded=0;strokeWidth=2;entryX=0.5;entryY=0;entryDx=0;entryDy=0;fontStyle=1;exitX=0.909;exitY=0.5;exitDx=0;exitDy=0;exitPerimeter=0;" edge="1" parent="WIyWlLk6GJQsqaUBKTNV-1" source="n-twqc49LTAcAogqDrhY-1" target="n-twqc49LTAcAogqDrhY-10">
          <mxGeometry relative="1" as="geometry">
            <mxPoint x="1432.5" y="175.00000000000023" as="targetPoint" />
            <Array as="points">
              <mxPoint x="1372" y="140" />
              <mxPoint x="1372" y="140" />
            </Array>
            <mxPoint x="1370" y="140" as="sourcePoint" />
          </mxGeometry>
        </mxCell>
        <mxCell id="n-twqc49LTAcAogqDrhY-8" style="edgeStyle=orthogonalEdgeStyle;rounded=0;orthogonalLoop=1;jettySize=auto;html=1;entryX=0.168;entryY=0.464;entryDx=0;entryDy=0;entryPerimeter=0;strokeWidth=2;fontStyle=1;endArrow=open;endFill=0;" edge="1" parent="WIyWlLk6GJQsqaUBKTNV-1" source="n-twqc49LTAcAogqDrhY-11" target="n-twqc49LTAcAogqDrhY-0">
          <mxGeometry relative="1" as="geometry">
            <Array as="points">
              <mxPoint x="1198" y="235" />
              <mxPoint x="1240" y="235" />
              <mxPoint x="1240" y="263" />
            </Array>
          </mxGeometry>
        </mxCell>
        <mxCell id="n-twqc49LTAcAogqDrhY-9" style="edgeStyle=orthogonalEdgeStyle;rounded=0;orthogonalLoop=1;jettySize=auto;html=1;endArrow=open;endFill=0;strokeWidth=2;exitX=0.494;exitY=0.854;exitDx=0;exitDy=0;exitPerimeter=0;" edge="1" parent="WIyWlLk6GJQsqaUBKTNV-1" source="n-twqc49LTAcAogqDrhY-12">
          <mxGeometry relative="1" as="geometry">
            <mxPoint x="1283.13" y="90" as="sourcePoint" />
            <mxPoint x="1283" y="134" as="targetPoint" />
          </mxGeometry>
        </mxCell>
        <mxCell id="n-twqc49LTAcAogqDrhY-10" value="Definir data" style="rounded=1;whiteSpace=wrap;html=1;arcSize=40;fontColor=#000000;fillColor=#FFFFFF;strokeColor=#000000;strokeWidth=2;fontStyle=1" vertex="1" parent="WIyWlLk6GJQsqaUBKTNV-1">
          <mxGeometry x="1340" y="175" width="65" height="40" as="geometry" />
        </mxCell>
        <mxCell id="n-twqc49LTAcAogqDrhY-11" value="Definir origem" style="rounded=1;whiteSpace=wrap;html=1;arcSize=40;fontColor=#000000;fillColor=#FFFFFF;strokeColor=#000000;strokeWidth=2;fontStyle=1" vertex="1" parent="WIyWlLk6GJQsqaUBKTNV-1">
          <mxGeometry x="1160" y="175" width="75" height="40" as="geometry" />
        </mxCell>
        <mxCell id="n-twqc49LTAcAogqDrhY-12" value="" style="ellipse;html=1;shape=startState;fillColor=light-dark(#000000,#000000);strokeColor=none;strokeWidth=2;fontStyle=1" vertex="1" parent="WIyWlLk6GJQsqaUBKTNV-1">
          <mxGeometry x="1268.1200000000001" y="60" width="30" height="30" as="geometry" />
        </mxCell>
        <mxCell id="n-twqc49LTAcAogqDrhY-13" value="Usuário" style="text;html=1;align=center;verticalAlign=middle;resizable=0;points=[];autosize=1;strokeColor=none;fillColor=none;fontStyle=1" vertex="1" parent="WIyWlLk6GJQsqaUBKTNV-1">
          <mxGeometry x="1249.99" width="60" height="30" as="geometry" />
        </mxCell>
        <mxCell id="n-twqc49LTAcAogqDrhY-14" style="edgeStyle=orthogonalEdgeStyle;rounded=0;orthogonalLoop=1;jettySize=auto;html=1;entryX=0.5;entryY=0;entryDx=0;entryDy=0;endArrow=open;endFill=0;strokeWidth=2;" edge="1" parent="WIyWlLk6GJQsqaUBKTNV-1" source="n-twqc49LTAcAogqDrhY-15" target="n-twqc49LTAcAogqDrhY-18">
          <mxGeometry relative="1" as="geometry" />
        </mxCell>
        <mxCell id="n-twqc49LTAcAogqDrhY-15" value="Verificar dados adicionados" style="rounded=1;whiteSpace=wrap;html=1;arcSize=40;fontColor=#000000;fillColor=#FFFFFF;strokeColor=#000000;strokeWidth=2;fontStyle=1" vertex="1" parent="WIyWlLk6GJQsqaUBKTNV-1">
          <mxGeometry x="1580" y="49" width="120" height="40" as="geometry" />
        </mxCell>
        <mxCell id="n-twqc49LTAcAogqDrhY-16" style="edgeStyle=orthogonalEdgeStyle;rounded=0;orthogonalLoop=1;jettySize=auto;html=1;entryX=0;entryY=0.5;entryDx=0;entryDy=0;endArrow=open;endFill=0;strokeWidth=2;" edge="1" parent="WIyWlLk6GJQsqaUBKTNV-1" source="n-twqc49LTAcAogqDrhY-18" target="n-twqc49LTAcAogqDrhY-20">
          <mxGeometry relative="1" as="geometry" />
        </mxCell>
        <mxCell id="n-twqc49LTAcAogqDrhY-17" style="edgeStyle=orthogonalEdgeStyle;rounded=0;orthogonalLoop=1;jettySize=auto;html=1;entryX=0.5;entryY=0;entryDx=0;entryDy=0;strokeWidth=2;endArrow=open;endFill=0;" edge="1" parent="WIyWlLk6GJQsqaUBKTNV-1" source="n-twqc49LTAcAogqDrhY-18" target="n-twqc49LTAcAogqDrhY-23">
          <mxGeometry relative="1" as="geometry" />
        </mxCell>
        <mxCell id="n-twqc49LTAcAogqDrhY-18" value="" style="rhombus;whiteSpace=wrap;html=1;fontStyle=1;strokeWidth=2;container=0;" vertex="1" parent="WIyWlLk6GJQsqaUBKTNV-1">
          <mxGeometry x="1617.5" y="139" width="45" height="40" as="geometry" />
        </mxCell>
        <mxCell id="n-twqc49LTAcAogqDrhY-20" value="Exibir erro de dados" style="rounded=1;whiteSpace=wrap;html=1;arcSize=40;fontColor=#000000;fillColor=#FFFFFF;strokeColor=#000000;strokeWidth=2;fontStyle=1" vertex="1" parent="WIyWlLk6GJQsqaUBKTNV-1">
          <mxGeometry x="1730" y="139" width="100" height="40" as="geometry" />
        </mxCell>
        <mxCell id="n-twqc49LTAcAogqDrhY-22" style="edgeStyle=orthogonalEdgeStyle;rounded=0;orthogonalLoop=1;jettySize=auto;html=1;entryX=0.5;entryY=0;entryDx=0;entryDy=0;endArrow=open;endFill=0;strokeWidth=2;" edge="1" parent="WIyWlLk6GJQsqaUBKTNV-1" source="n-twqc49LTAcAogqDrhY-23" target="n-twqc49LTAcAogqDrhY-30">
          <mxGeometry relative="1" as="geometry" />
        </mxCell>
        <mxCell id="n-twqc49LTAcAogqDrhY-23" value="Consultar API" style="rounded=1;whiteSpace=wrap;html=1;arcSize=40;fontColor=#000000;fillColor=#FFFFFF;strokeColor=#000000;strokeWidth=2;fontStyle=1" vertex="1" parent="WIyWlLk6GJQsqaUBKTNV-1">
          <mxGeometry x="1580" y="239" width="120" height="40" as="geometry" />
        </mxCell>
        <mxCell id="n-twqc49LTAcAogqDrhY-24" value="[Falha]" style="text;html=1;align=center;verticalAlign=middle;whiteSpace=wrap;rounded=0;strokeWidth=2;fontStyle=1" vertex="1" parent="WIyWlLk6GJQsqaUBKTNV-1">
          <mxGeometry x="1662.5" y="129" width="60" height="30" as="geometry" />
        </mxCell>
        <mxCell id="n-twqc49LTAcAogqDrhY-25" value="[Sucesso]" style="text;html=1;align=center;verticalAlign=middle;whiteSpace=wrap;rounded=0;strokeWidth=2;fontStyle=1" vertex="1" parent="WIyWlLk6GJQsqaUBKTNV-1">
          <mxGeometry x="1570" y="179" width="60" height="30" as="geometry" />
        </mxCell>
        <mxCell id="n-twqc49LTAcAogqDrhY-26" style="edgeStyle=orthogonalEdgeStyle;rounded=0;orthogonalLoop=1;jettySize=auto;html=1;entryX=-0.017;entryY=0.527;entryDx=0;entryDy=0;endArrow=open;endFill=0;strokeWidth=2;entryPerimeter=0;" edge="1" parent="WIyWlLk6GJQsqaUBKTNV-1" source="n-twqc49LTAcAogqDrhY-27" target="n-twqc49LTAcAogqDrhY-33">
          <mxGeometry relative="1" as="geometry">
            <Array as="points">
              <mxPoint x="1480" y="415" />
              <mxPoint x="1625" y="415" />
            </Array>
          </mxGeometry>
        </mxCell>
        <mxCell id="n-twqc49LTAcAogqDrhY-27" value="Exibir erro de API" style="rounded=1;whiteSpace=wrap;html=1;arcSize=40;fontColor=#000000;fillColor=#FFFFFF;strokeColor=#000000;strokeWidth=2;fontStyle=1" vertex="1" parent="WIyWlLk6GJQsqaUBKTNV-1">
          <mxGeometry x="1440" y="329" width="70" height="40" as="geometry" />
        </mxCell>
        <mxCell id="n-twqc49LTAcAogqDrhY-28" style="edgeStyle=orthogonalEdgeStyle;rounded=0;orthogonalLoop=1;jettySize=auto;html=1;endArrow=open;endFill=0;strokeWidth=2;" edge="1" parent="WIyWlLk6GJQsqaUBKTNV-1" source="n-twqc49LTAcAogqDrhY-30" target="n-twqc49LTAcAogqDrhY-32">
          <mxGeometry relative="1" as="geometry" />
        </mxCell>
        <mxCell id="n-twqc49LTAcAogqDrhY-29" style="edgeStyle=orthogonalEdgeStyle;rounded=0;orthogonalLoop=1;jettySize=auto;html=1;endArrow=open;endFill=0;strokeWidth=2;" edge="1" parent="WIyWlLk6GJQsqaUBKTNV-1" source="n-twqc49LTAcAogqDrhY-30" target="n-twqc49LTAcAogqDrhY-27">
          <mxGeometry relative="1" as="geometry" />
        </mxCell>
        <mxCell id="n-twqc49LTAcAogqDrhY-30" value="" style="rhombus;whiteSpace=wrap;html=1;fontStyle=1;strokeWidth=2;container=0;" vertex="1" parent="WIyWlLk6GJQsqaUBKTNV-1">
          <mxGeometry x="1617.5" y="329" width="45" height="40" as="geometry" />
        </mxCell>
        <mxCell id="n-twqc49LTAcAogqDrhY-31" style="edgeStyle=orthogonalEdgeStyle;rounded=0;orthogonalLoop=1;jettySize=auto;html=1;entryX=1;entryY=0.5;entryDx=0;entryDy=0;endArrow=open;endFill=0;strokeWidth=2;" edge="1" parent="WIyWlLk6GJQsqaUBKTNV-1" target="n-twqc49LTAcAogqDrhY-33">
          <mxGeometry relative="1" as="geometry">
            <Array as="points">
              <mxPoint x="1805" y="415" />
            </Array>
            <mxPoint x="1805" y="369" as="sourcePoint" />
            <mxPoint x="1690" y="434" as="targetPoint" />
          </mxGeometry>
        </mxCell>
        <mxCell id="n-twqc49LTAcAogqDrhY-32" value="Exibir opções de viagens" style="rounded=1;whiteSpace=wrap;html=1;arcSize=40;fontColor=#000000;fillColor=#FFFFFF;strokeColor=#000000;strokeWidth=2;fontStyle=1" vertex="1" parent="WIyWlLk6GJQsqaUBKTNV-1">
          <mxGeometry x="1740" y="329" width="120" height="40" as="geometry" />
        </mxCell>
        <mxCell id="n-twqc49LTAcAogqDrhY-34" value="Sistema" style="text;html=1;align=center;verticalAlign=middle;resizable=0;points=[];autosize=1;strokeColor=none;fillColor=none;fontStyle=1" vertex="1" parent="WIyWlLk6GJQsqaUBKTNV-1">
          <mxGeometry x="1605" width="70" height="30" as="geometry" />
        </mxCell>
        <mxCell id="n-twqc49LTAcAogqDrhY-35" value="[Falha]" style="text;html=1;align=center;verticalAlign=middle;whiteSpace=wrap;rounded=0;strokeWidth=2;fontStyle=1" vertex="1" parent="WIyWlLk6GJQsqaUBKTNV-1">
          <mxGeometry x="1557.5" y="320" width="60" height="30" as="geometry" />
        </mxCell>
        <mxCell id="n-twqc49LTAcAogqDrhY-36" value="[Sucesso]" style="text;html=1;align=center;verticalAlign=middle;whiteSpace=wrap;rounded=0;strokeWidth=2;fontStyle=1" vertex="1" parent="WIyWlLk6GJQsqaUBKTNV-1">
          <mxGeometry x="1670" y="320" width="60" height="30" as="geometry" />
        </mxCell>
        <mxCell id="n-twqc49LTAcAogqDrhY-37" value="" style="swimlane;startSize=0;" vertex="1" parent="WIyWlLk6GJQsqaUBKTNV-1">
          <mxGeometry x="1140" width="290" height="450" as="geometry" />
        </mxCell>
        <mxCell id="n-twqc49LTAcAogqDrhY-38" value="" style="swimlane;startSize=0;" vertex="1" parent="WIyWlLk6GJQsqaUBKTNV-1">
          <mxGeometry x="1430" width="440" height="450" as="geometry" />
        </mxCell>
        <mxCell id="n-twqc49LTAcAogqDrhY-33" value="" style="ellipse;html=1;shape=endState;fillColor=light-dark(#000000,#000000);strokeColor=default;strokeWidth=2;fontStyle=1" vertex="1" parent="n-twqc49LTAcAogqDrhY-38">
          <mxGeometry x="195" y="400" width="30" height="30" as="geometry" />
        </mxCell>
        <mxCell id="n-twqc49LTAcAogqDrhY-39" style="edgeStyle=orthogonalEdgeStyle;rounded=0;orthogonalLoop=1;jettySize=auto;html=1;entryX=0.685;entryY=0.463;entryDx=0;entryDy=0;entryPerimeter=0;strokeWidth=2;exitX=0.5;exitY=0;exitDx=0;exitDy=0;endArrow=open;endFill=0;" edge="1" parent="WIyWlLk6GJQsqaUBKTNV-1" source="n-twqc49LTAcAogqDrhY-20" target="n-twqc49LTAcAogqDrhY-1">
          <mxGeometry relative="1" as="geometry">
            <Array as="points">
              <mxPoint x="1790" y="30" />
              <mxPoint x="1323" y="30" />
            </Array>
          </mxGeometry>
        </mxCell>
      </root>
    </mxGraphModel>
  </diagram>
</mxfile>
